<svg xmlns="http://www.w3.org/2000/svg" width="200" height="100">
    <!-- <path fill="#FFF" d="M0 0h147v104H0z" /> -->
    <path
        d="M63.857 22.503h-.87v-.714h2.774v.714h-.87v6.747h.893V30h-2.82v-.75h.893v-6.747zM70.045 30v-3.677c0-.484-.082-.831-.244-1.041-.163-.21-.41-.316-.744-.316-.286 0-.524.072-.714.214-.19.143-.341.282-.452.417V30h-.964v-5.712h.88v.643h.024a1.49 1.49 0 0 1 .464-.47c.127-.084.278-.157.453-.22.174-.064.372-.096.594-.096.254 0 .484.038.69.113.207.076.382.197.524.363.143.167.254.383.334.649.079.265.118.593.118.981V30h-.963zm4.807-4.927h-1.166V30h-.964v-4.927h-.69v-.642l.69-.131v-1.143c0-.309.044-.575.131-.797.087-.222.202-.404.345-.547.143-.143.31-.246.5-.31a1.92 1.92 0 0 1 .607-.095c.206 0 .38.028.523.084.143.055.238.099.286.13l-.202.798a1.187 1.187 0 0 0-.203-.102.85.85 0 0 0-.32-.053c-.231 0-.405.071-.524.214-.12.143-.179.405-.179.786v1.023h1.285l-.119.785zm.583 2.071c0-.524.062-.976.185-1.357.123-.38.29-.692.5-.934.21-.242.452-.42.725-.535a2.24 2.24 0 0 1 .875-.173c.317 0 .611.058.88.173.27.115.505.293.703.535.198.242.355.554.47.934.115.381.172.833.172 1.357 0 .532-.06.988-.178 1.369-.12.38-.284.692-.494.934-.21.242-.454.418-.732.53a2.348 2.348 0 0 1-.88.166 2.29 2.29 0 0 1-.881-.167 1.775 1.775 0 0 1-.702-.53 2.683 2.683 0 0 1-.47-.928c-.115-.376-.173-.835-.173-1.374zm3.51 0c0-.762-.11-1.315-.332-1.66-.222-.345-.532-.518-.929-.518-.396 0-.704.173-.922.518-.218.345-.327.898-.327 1.66 0 .762.111 1.309.333 1.642.222.333.532.5.928.5.397 0 .704-.167.923-.5.218-.333.327-.88.327-1.642zm4.725-2.011a.688.688 0 0 0-.155-.06 1.158 1.158 0 0 0-.32-.035c-.302 0-.538.081-.709.244-.17.162-.291.339-.363.53V30h-.964v-5.712h.88v.773h.025c.04-.11.09-.22.154-.327a1.18 1.18 0 0 1 .238-.285c.096-.084.209-.15.34-.197a1.38 1.38 0 0 1 .47-.071c.134 0 .243.012.327.036.083.023.148.043.196.06l-.119.856zM87.62 30v-3.677c0-.468-.067-.805-.201-1.012-.135-.206-.353-.309-.655-.309a1.374 1.374 0 0 0-.75.208 1.43 1.43 0 0 0-.25.197c-.07.071-.13.134-.178.19V30h-.964v-5.712h.88v.643h.025c.04-.064.099-.141.178-.232a1.702 1.702 0 0 1 .714-.47c.159-.056.337-.084.535-.084.651 0 1.111.254 1.38.762a1.83 1.83 0 0 1 .988-.69c.16-.048.334-.072.524-.072 1.158 0 1.738.675 1.738 2.023V30h-.964v-3.677c0-.468-.084-.805-.25-1.012-.167-.206-.413-.309-.738-.309-.27 0-.494.065-.672.196a2.56 2.56 0 0 0-.423.375c.016.087.028.18.036.28.008.099.012.204.012.315V30h-.964zm5.07-1.452c0-.333.064-.61.19-.833a1.57 1.57 0 0 1 .512-.541c.215-.14.467-.238.756-.298.29-.06.597-.089.922-.089h.298v-.547c0-.484-.085-.817-.256-1-.17-.182-.41-.274-.72-.274-.286 0-.524.062-.714.185-.19.123-.341.232-.452.327l-.405-.643c.064-.063.145-.134.244-.214.1-.08.22-.155.363-.226a2.456 2.456 0 0 1 1.107-.25c.587 0 1.031.163 1.333.488.301.325.452.849.452 1.57v2.607c0 .246.008.486.024.72.016.234.031.39.047.47h-.916l-.036-.63h-.024a1.54 1.54 0 0 1-.142.243 1.177 1.177 0 0 1-.238.25 1.43 1.43 0 0 1-.346.197 1.246 1.246 0 0 1-.475.083c-.215 0-.415-.04-.601-.12a1.481 1.481 0 0 1-.81-.838 1.745 1.745 0 0 1-.113-.637zm1.726.774a.99.99 0 0 0 .357-.06 1.15 1.15 0 0 0 .268-.143.937.937 0 0 0 .19-.184c.052-.067.097-.125.137-.173v-1.261l-.31.012c-.46.016-.809.095-1.047.238-.238.143-.357.373-.357.69 0 .294.068.514.203.66.134.147.32.22.559.22zm5.795-4.249h-1.25v3.166c0 .404.052.68.155.827.103.147.278.22.524.22.143 0 .266-.02.369-.06.103-.04.178-.075.226-.107l.13.774a1.603 1.603 0 0 1-.285.149c-.15.067-.353.1-.607.1-.492 0-.86-.136-1.106-.41-.246-.273-.37-.728-.37-1.362v-3.297h-.69v-.642l.69-.143.108-1.595h.857v1.595h1.368l-.119.785zM102.27 30h-.964v-5.712h.964V30zm-.476-7.092a.622.622 0 0 1-.476-.19.701.701 0 0 1-.179-.5c0-.199.06-.362.179-.488a.622.622 0 0 1 .476-.19c.19 0 .345.063.464.19.119.126.178.29.178.487 0 .207-.06.373-.178.5a.607.607 0 0 1-.464.19zm1.69 4.236c0-.524.061-.976.184-1.357.123-.38.29-.692.5-.934.21-.242.452-.42.726-.535a2.23 2.23 0 0 1 .874-.173c.318 0 .611.058.881.173.27.115.504.293.702.535.198.242.355.554.47.934.115.381.173.833.173 1.357 0 .532-.06.988-.179 1.369-.119.38-.283.692-.494.934-.21.242-.454.418-.731.53a2.348 2.348 0 0 1-.881.166 2.29 2.29 0 0 1-.88-.167 1.775 1.775 0 0 1-.703-.53 2.683 2.683 0 0 1-.47-.928c-.115-.376-.172-.835-.172-1.374zm3.51 0c0-.762-.111-1.315-.333-1.66-.222-.345-.532-.518-.928-.518-.397 0-.704.173-.922.518-.219.345-.328.898-.328 1.66 0 .762.111 1.309.333 1.642.222.333.532.5.929.5.396 0 .704-.167.922-.5.218-.333.327-.88.327-1.642zM112.325 30v-3.677c0-.484-.081-.831-.244-1.041-.162-.21-.41-.316-.743-.316-.286 0-.524.072-.714.214-.19.143-.341.282-.453.417V30h-.964v-5.712h.881v.643h.024a1.49 1.49 0 0 1 .464-.47c.127-.084.278-.157.452-.22.175-.064.373-.096.595-.096.254 0 .484.038.69.113.207.076.381.197.524.363.143.167.254.383.333.649.08.265.12.593.12.981V30h-.965zm4.867-4.558a2.427 2.427 0 0 0-.345-.291c-.166-.123-.384-.185-.654-.185-.254 0-.448.06-.583.179a.552.552 0 0 0-.203.428c0 .214.062.39.185.53.123.139.311.287.565.446l.357.214c.389.23.694.478.916.744.222.266.334.609.334 1.03 0 .452-.157.832-.47 1.142-.314.31-.764.464-1.351.464-.23 0-.433-.024-.607-.072a2.649 2.649 0 0 1-.458-.166 1.505 1.505 0 0 1-.327-.208 2.171 2.171 0 0 1-.215-.209l.465-.761c.047.047.105.103.172.166a1.562 1.562 0 0 0 .565.334c.12.04.258.059.417.059.285 0 .504-.064.654-.19a.586.586 0 0 0 .226-.464c0-.135-.017-.252-.053-.352a.804.804 0 0 0-.16-.267 1.496 1.496 0 0 0-.263-.226 11.602 11.602 0 0 0-.357-.238l-.357-.226a3.445 3.445 0 0 1-.838-.726c-.203-.254-.304-.58-.304-.976 0-.214.042-.41.125-.59.083-.178.2-.332.351-.463.15-.131.327-.234.53-.31.202-.075.418-.113.648-.113.222 0 .413.022.571.066a1.709 1.709 0 0 1 .697.368c.075.068.136.125.184.173l-.417.69zM68.07 34.61h-2.19V42h-1.035v-7.39h-2.19v-.821h5.487l-.072.821zm3.69 3.606c0 .246-.009.458-.025.636-.015.179-.031.336-.047.47H68.77c.032.675.177 1.17.435 1.488.257.317.628.476 1.112.476a1.6 1.6 0 0 0 .804-.202 1.711 1.711 0 0 0 .398-.298l.357.678c-.04.04-.099.098-.178.173a1.67 1.67 0 0 1-.322.226 2.314 2.314 0 0 1-.5.197 2.623 2.623 0 0 1-.701.083c-.358 0-.68-.06-.97-.179a1.834 1.834 0 0 1-.738-.553 2.674 2.674 0 0 1-.47-.952c-.111-.385-.167-.847-.167-1.386 0-.508.058-.947.173-1.315.115-.37.271-.673.47-.91.198-.239.428-.415.69-.53.262-.115.543-.173.845-.173.547 0 .976.173 1.285.518.31.345.464.863.464 1.553zm-1.81-1.285a.965.965 0 0 0-.82.428c-.207.286-.326.698-.358 1.238h2.083a1.3 1.3 0 0 0 .018-.173 4.73 4.73 0 0 0 .006-.244c0-.397-.08-.704-.238-.922-.16-.218-.39-.327-.69-.327zm6.272.464a4.397 4.397 0 0 0-.113-.107 1.204 1.204 0 0 0-.197-.143 1.244 1.244 0 0 0-.666-.178 1.47 1.47 0 0 0-.577.112 1.162 1.162 0 0 0-.464.363 1.877 1.877 0 0 0-.31.649 3.613 3.613 0 0 0-.113.97c0 .42.034.773.101 1.059.068.285.161.514.28.684.119.17.264.294.434.369.17.075.36.113.566.113.293 0 .517-.052.672-.155.155-.103.264-.186.327-.25l.393.667c-.04.047-.097.105-.173.172a1.486 1.486 0 0 1-.291.197 1.96 1.96 0 0 1-.434.16 2.39 2.39 0 0 1-.59.066c-.317 0-.614-.052-.892-.155a1.765 1.765 0 0 1-.726-.512c-.206-.238-.369-.547-.488-.928-.119-.38-.178-.853-.178-1.416 0-.547.071-1.011.214-1.392.143-.381.329-.688.56-.923.23-.233.485-.404.767-.511.281-.107.565-.16.85-.16.215 0 .403.019.566.059.162.04.301.089.416.148.115.06.21.123.286.19.075.068.137.126.184.173l-.404.679zM80.755 42v-3.677c0-.484-.082-.831-.244-1.041-.163-.21-.41-.316-.744-.316-.286 0-.524.072-.714.214-.19.143-.341.282-.452.417V42h-.964v-8.413l.964-.107v3.391h.023c.032-.048.082-.111.15-.19.067-.08.16-.159.279-.238a1.825 1.825 0 0 1 1.035-.297c.5 0 .897.162 1.19.487.294.325.44.865.44 1.618V42h-.963zm5.521 0v-3.677c0-.484-.081-.831-.244-1.041-.162-.21-.41-.316-.743-.316-.286 0-.524.072-.715.214-.19.143-.34.282-.452.417V42h-.964v-5.712h.881v.643h.024a1.49 1.49 0 0 1 .464-.47c.127-.084.278-.157.452-.22.175-.064.373-.096.595-.096.254 0 .484.038.69.113.207.076.381.197.524.363.143.167.254.383.333.649.08.265.12.593.12.981V42h-.965zm3.368 0h-.964v-5.712h.964V42zm-.476-7.092a.622.622 0 0 1-.476-.19.701.701 0 0 1-.179-.5c0-.199.06-.362.179-.489a.622.622 0 0 1 .476-.19.61.61 0 0 1 .464.19c.119.127.178.29.178.488a.7.7 0 0 1-.178.5.607.607 0 0 1-.464.19zm4.105 3.998L95.237 42h-1.154l-1.607-2.666h-.393V42h-.963v-8.413l.963-.107v5.033h.405l1.535-2.225h1.142l-1.892 2.618zm-25.62 7.526l-3.487 6.687v.024h3.784l-.07.857h-5.046v-.643l3.594-6.723v-.024h-3.403v-.821h4.629v.643zm4.879 3.784c0 .246-.008.458-.024.636-.016.179-.032.336-.048.47h-2.915c.031.675.176 1.17.434 1.488.258.317.629.476 1.113.476a1.6 1.6 0 0 0 .803-.202 1.711 1.711 0 0 0 .399-.298l.357.678-.179.173c-.08.075-.186.15-.321.226a2.357 2.357 0 0 1-.5.197 2.623 2.623 0 0 1-.702.083c-.357 0-.68-.06-.97-.179a1.834 1.834 0 0 1-.738-.553 2.674 2.674 0 0 1-.47-.952c-.11-.385-.166-.847-.166-1.386 0-.508.057-.947.172-1.315a2.61 2.61 0 0 1 .47-.91c.199-.239.429-.415.69-.53a2.08 2.08 0 0 1 .845-.173c.548 0 .976.173 1.286.518.309.345.464.863.464 1.553zm-1.81-1.285a.965.965 0 0 0-.82.428c-.207.286-.326.698-.357 1.238h2.082a1.3 1.3 0 0 0 .018-.173 4.73 4.73 0 0 0 .006-.244c0-.397-.08-.704-.238-.922-.159-.218-.389-.327-.69-.327zM76.936 54v-3.677c0-.484-.082-.831-.244-1.041-.163-.21-.41-.316-.744-.316-.286 0-.524.072-.714.215-.19.142-.341.281-.452.416V54h-.964v-5.712h.88v.643h.024a1.49 1.49 0 0 1 .464-.47c.127-.084.278-.157.453-.22.174-.064.372-.096.595-.096.254 0 .483.038.69.113.206.076.38.197.523.363.143.167.254.383.334.649.079.265.119.593.119.981V54h-.964zm4.843-4.927h-1.25v3.166c0 .404.052.68.155.827.103.147.278.22.524.22.143 0 .266-.02.369-.06.103-.04.178-.075.226-.107l.13.774a1.603 1.603 0 0 1-.285.149c-.15.067-.353.1-.607.1-.492 0-.86-.136-1.107-.41-.245-.273-.368-.728-.368-1.362v-3.297h-.69v-.642l.69-.143.107-1.595h.856v1.595h1.369l-.119.785zm3.606.06a.688.688 0 0 0-.155-.06 1.158 1.158 0 0 0-.321-.035c-.302 0-.538.081-.708.244a1.42 1.42 0 0 0-.363.53V54h-.964v-5.712h.88v.774h.024c.04-.112.091-.22.155-.328.063-.107.143-.202.238-.285.095-.084.208-.15.339-.197a1.38 1.38 0 0 1 .47-.071c.135 0 .244.012.327.036.084.023.15.043.197.06l-.12.856zM90.334 54h-.88v-.643h-.024a1.552 1.552 0 0 1-.458.47 2.037 2.037 0 0 1-.447.22 1.695 1.695 0 0 1-.583.096 1.95 1.95 0 0 1-.684-.113 1.245 1.245 0 0 1-.518-.363 1.69 1.69 0 0 1-.327-.649 3.648 3.648 0 0 1-.113-.982v-3.748h.964v3.677c0 .476.077.815.232 1.018.155.202.395.303.72.303.278 0 .512-.07.702-.208.19-.14.341-.276.452-.41v-4.38h.964V54zm4.474 0v-3.677c0-.468-.067-.805-.202-1.012-.135-.206-.353-.309-.654-.309a1.374 1.374 0 0 0-.75.208 1.43 1.43 0 0 0-.25.197c-.071.071-.13.135-.178.19V54h-.964v-5.712h.88v.643h.024c.04-.064.1-.141.179-.232a1.702 1.702 0 0 1 .714-.47c.158-.056.337-.084.535-.084.65 0 1.11.254 1.38.762a1.83 1.83 0 0 1 .988-.69c.159-.048.333-.072.524-.072 1.158 0 1.737.674 1.737 2.023V54h-.964v-3.677c0-.468-.083-.805-.25-1.012-.166-.206-.412-.309-.737-.309-.27 0-.494.066-.673.196-.178.131-.32.256-.422.375.016.087.028.18.035.28.008.099.012.204.012.315V54h-.964zm12.436-6.117c0 .286-.036.536-.107.75a1.79 1.79 0 0 1-.292.553c-.123.155-.265.28-.428.375a2.085 2.085 0 0 1-.506.215v.023c.214.04.415.115.601.226a1.89 1.89 0 0 1 .821 1.006c.084.226.125.474.125.744 0 .325-.055.623-.166.892a1.82 1.82 0 0 1-.518.702c-.234.199-.53.353-.887.464-.357.111-.781.167-1.273.167h-1.678v-8.211h1.583c.484 0 .898.05 1.243.149.346.099.63.24.851.422.222.183.383.403.482.66.1.258.149.546.149.863zm-1.047.036c0-.38-.135-.694-.405-.94s-.694-.369-1.273-.369h-.547v2.832h.535c.555 0 .976-.135 1.261-.404.286-.27.429-.643.429-1.119zm.154 3.784c0-.444-.144-.795-.434-1.053-.29-.258-.704-.387-1.243-.387h-.703v2.88h.643c.611 0 1.053-.12 1.327-.363.274-.242.41-.6.41-1.077zM112.73 54h-.88v-.643h-.024a1.552 1.552 0 0 1-.458.47 2.037 2.037 0 0 1-.447.22 1.695 1.695 0 0 1-.583.096 1.95 1.95 0 0 1-.684-.113 1.245 1.245 0 0 1-.518-.363 1.69 1.69 0 0 1-.327-.649 3.648 3.648 0 0 1-.113-.982v-3.748h.964v3.677c0 .476.077.815.232 1.018.154.202.394.303.72.303.277 0 .511-.07.702-.208.19-.14.34-.276.452-.41v-4.38h.964V54zm4.593 0v-3.677c0-.484-.081-.831-.244-1.041-.162-.21-.41-.316-.743-.316-.286 0-.524.072-.714.215-.19.142-.341.281-.453.416V54h-.963v-5.712h.88v.643h.024a1.49 1.49 0 0 1 .464-.47c.127-.084.278-.157.452-.22.175-.064.373-.096.595-.096.254 0 .484.038.69.113.207.076.381.197.524.363.143.167.254.383.333.649.08.265.12.593.12.981V54h-.965zm2.142-2.773c0-.579.076-1.063.226-1.451.151-.39.346-.703.584-.94a2.01 2.01 0 0 1 .809-.506c.301-.1.603-.15.904-.15.183 0 .341.015.476.043.135.027.246.061.333.1v-2.736l.964-.107V54h-.88v-.607h-.024a1.368 1.368 0 0 1-.393.446c-.111.084-.25.155-.416.215-.167.06-.361.089-.584.089a1.89 1.89 0 0 1-.767-.16 1.656 1.656 0 0 1-.637-.513 2.667 2.667 0 0 1-.434-.904c-.107-.369-.16-.815-.16-1.339zm2.261 2.059a1.276 1.276 0 0 0 .714-.208 1.315 1.315 0 0 0 .357-.351v-3.523a1.439 1.439 0 0 0-.303-.142 1.35 1.35 0 0 0-.434-.06c-.223 0-.43.038-.625.113-.195.075-.363.2-.506.375a1.94 1.94 0 0 0-.34.678 3.606 3.606 0 0 0-.124 1.024c0 .396.034.727.101.993s.16.48.28.643c.119.162.254.28.404.35.151.072.31.108.476.108zM37.173 29.339c.027-.224.043-.455.043-.691 0-.129.001-.279-.015-.449 1.993-.028 3.741-1.464 3.741-3.115 0-.84-.548-1.474-.857-1.853l.21-.048c.292.254 1.12 1.156 1.12 2.295 0 1.981-1.98 3.82-4.242 3.861m-2.008-6.899a1.36 1.36 0 0 0-.249-.593c.007-.202.09-.395.415-.236-.176.18-.04.499-.04.499s.36-.167.285-.405c.534.128.15.845-.411.735m-.463 1.017a2.088 2.088 0 0 0-.416-.829c-.176-.208-.467-.455-.859-.455-.179 0-.479.084-.67.165-.071-.13-.21-.443-.21-.584 0-.145.245-.292.714-.292 1.032 0 1.648.466 1.648 1.248 0 .275-.109.525-.207.747m2.65 13.3a.61.61 0 0 1 .248.045c.297.808 1.442 2.333 1.49 2.398l.01.014.017-.004c.281-.045.998-.153 1.598-.153h.014c.065 0 .139 0 .186.046.039.039.058.107.058.204 0 .149-.063.404-.139.513-.21-.229-.551-.332-1.097-.332-.164 0-.358.049-.463.077l-.043.009-.049.013.315.315c.486.486.906.905.906 1.184 0 .168-.164.387-.314.484-.033-.511-.549-1.195-1.052-1.578l-.043-.032-.008.18c-.007.122-.018.305-.018.501 0 .973-.099 1.121-.436 1.121a.615.615 0 0 1-.18-.033c.19-.235.265-.545.265-1.089l-.003-.251-.003-.202c0-.223.023-.388.041-.521l.01-.075-.053-.007a5.459 5.459 0 0 0-.675-.062c-.481 0-.807.044-1.043.266-.156-.126-.316-.343-.316-.48 0-.203.126-.219.292-.219.084 0 .162.012.27.025.207.031.518.077 1.159.077h.04l-.013-.039c-.162-.465-.608-1.141-1.323-2.01.064-.233.127-.385.352-.385m-6.174 2.395l-.013.039h.04c.64 0 .952-.046 1.159-.077.108-.013.186-.025.27-.025.165 0 .292.016.292.219 0 .137-.16.354-.315.48-.237-.222-.563-.266-1.043-.266-.225 0-.519.04-.676.062l-.025.003-.028.004.009.075c.019.133.042.298.042.521l-.003.202-.003.251c0 .544.075.854.266 1.089a.628.628 0 0 1-.181.033c-.338 0-.436-.148-.436-1.121 0-.196-.01-.379-.017-.501l-.01-.181-.042.033c-.502.383-1.02 1.067-1.051 1.578-.151-.097-.315-.316-.315-.484 0-.279.42-.698.906-1.184l.279-.279.036-.036-.092-.022a1.962 1.962 0 0 0-.464-.077c-.545 0-.885.103-1.096.332-.076-.109-.139-.364-.139-.513 0-.097.019-.165.058-.204.047-.046.121-.046.186-.046h.014c.6 0 1.318.108 1.598.153l.017.004.01-.014c.049-.065 1.193-1.59 1.491-2.398a.597.597 0 0 1 .247-.045c.225 0 .288.152.353.385-.716.869-1.162 1.545-1.324 2.01m-3.092-13.674c0-1.139.829-2.041 1.121-2.295l.21.048c-.31.379-.858 1.013-.858 1.853 0 1.668 1.782 3.116 3.8 3.116-.013.143-.02.293-.02.448 0 .246.014.475.038.691-2.282-.014-4.291-1.866-4.291-3.861m15.306 3.513c1.024 1.619 1.825 1.592 3.035 1.592-1.001-.767-1.663-1.75-1.979-2.252l-1.87-2.992a4.426 4.426 0 0 0-1.376-2.431c.241-.091.441-.187.561-.278-1.221 0-2.431-.62-3.097-.62-.428 0-.703.256-.703.594.027.377.415.76 1.132.76.162 0 .37-.021.598-.059.388.541.701 1.03.701 1.728 0 1.31-1.566 2.331-3.147 2.331-.09 0-.175-.004-.264-.01-.143-.325-.62-.87-.62-1.49 0-1.041.679-1.891.679-2.922 0-.641-.312-1.038-.432-1.203.194-.18.406-.401.456-.553-.113.049-.247.055-.442.055-.758 0-1.376-.197-1.978-.197-.344 0-.436.106-.436.207 0 .037.005.075.015.093a2.028 2.028 0 0 0-.391-.109 3.054 3.054 0 0 0-.573-.051c-.732 0-.992.307-.992.57 0 .222.175.628.374.938.285-.144.628-.241.784-.241.389 0 .734.37.917.808-.261.032-.311.043-.575.043-.713 0-1.198-.255-1.298-.255-.009 0-.028.005-.028.021 0 .1.202.364.6.509.525.192 1.311.272 1.442.294 0 .023-.133.271-.282.319a.162.162 0 0 1-.093.003c-.548-.108-.701-.154-1.396-.418-.021-.008-.034.005-.034.027 0 .275.712.882 1.35 1.115-.533.68-1.198 1.376-1.512 2.437-.089.006-.175.01-.264.01-1.581 0-3.147-1.021-3.147-2.331 0-.698.313-1.187.701-1.728.228.038.435.059.598.059.717 0 1.105-.383 1.133-.76 0-.338-.275-.594-.704-.594-.666 0-1.875.62-3.098.62.121.091.321.187.561.278a4.43 4.43 0 0 0-1.375 2.431l-1.87 2.992c-.315.502-.979 1.485-1.98 2.252 1.21 0 2.012.027 3.036-1.592l.959-1.534c.071.199.158.393.261.583l-1.907 3.051c-.317.506-.975 1.48-1.98 2.252 1.21 0 2.012.028 3.036-1.59l1.641-2.628c.123.131.252.259.388.381l-2.316 3.708c-.318.507-.972 1.479-1.979 2.25 1.21 0 2.012.029 3.035-1.59l2.258-3.615c.149.094.301.185.459.271l-2.757 4.411c-.318.507-.972 1.476-1.979 2.25 1.21 0 2.012.028 3.036-1.59l2.838-4.543c.168.064.338.126.511.181l-3.207 5.133c-.313.5-.982 1.487-1.978 2.25 1.209 0 2.012.028 3.035-1.59l3.418-5.47c.035.006.069.011.103.018.093.296.158.572.158.847 0 1.719-1.128 3.237-2.482 4.409.087.038.238.051.377.051.28 0 .46-.015.587-.037-.314.713-.988 1.634-1.328 2.11a9.883 9.883 0 0 0-1.51-.142c-.442 0-.492.258-.492.489 0 .401.188.72.406.898.082-.205.247-.479 1.063-.479l.082.005c-.238.265-.985.869-.985 1.355 0 .322.353.805.818.805-.027-.104-.024-.199-.024-.271 0-.394.349-.855.644-1.177-.009.096-.004.086-.004.198 0 .931.084 1.359.675 1.359.29 0 .49-.159.559-.207-.384-.353-.404-.631-.404-1.153l.004-.452a2.536 2.536 0 0 0-.02-.392c.211-.029.297-.029.46-.029 0 0 .839-.067 1.042.37.228-.209.559-.504.559-.829 0-.215-.102-.458-.535-.458-.164 0-.679.1-1.11.1.116-.257.631-1.011 1.078-1.558.068.212.173.441.407.629.033-.352.239-1.465.789-2.116.064.44.15.891.15 1.842 0 2.314-.556 4.023-1.737 4.349.154.267.479.508.816.508.432 0 .667-.489.907-.95.125.34.47 1.174.816 1.174s.692-.834.817-1.174c.239.461.475.95.907.95.337 0 .662-.241.816-.508-1.181-.326-1.738-2.035-1.738-4.349 0-.951.086-1.402.15-1.842.551.651.758 1.764.789 2.116a1.24 1.24 0 0 0 .408-.629c.446.547.962 1.301 1.078 1.558-.431 0-.947-.1-1.11-.1-.432 0-.534.243-.534.458 0 .325.331.62.559.829.201-.437 1.042-.37 1.042-.37.162 0 .248 0 .46.029-.02.114-.021.272-.02.392l.003.452c0 .522-.02.8-.404 1.153.069.048.269.207.559.207.591 0 .676-.428.676-1.359 0-.112.003-.102-.005-.198.295.322.644.783.644 1.177 0 .072.004.167-.025.271.466 0 .82-.483.82-.805 0-.486-.747-1.09-.987-1.355l.082-.005c.817 0 .982.274 1.064.479.218-.178.406-.497.406-.898 0-.231-.05-.489-.492-.489-.422 0-1.066.062-1.51.142-.341-.476-1.013-1.397-1.328-2.11.127.022.308.037.587.037.14 0 .29-.013.377-.051-1.354-1.172-2.482-2.69-2.482-4.409 0-.275.065-.551.158-.847.033-.007.069-.012.103-.018l3.418 5.47c1.023 1.618 1.826 1.59 3.035 1.59-.996-.763-1.665-1.75-1.978-2.25l-3.208-5.133c.174-.055.345-.117.513-.181l2.837 4.543c1.024 1.618 1.826 1.59 3.036 1.59-1.007-.774-1.661-1.743-1.979-2.25l-2.756-4.411c.156-.086.309-.177.457-.271l2.259 3.615c1.024 1.619 1.825 1.59 3.035 1.59-1.007-.771-1.66-1.743-1.979-2.25l-2.316-3.708c.136-.122.266-.25.387-.381l1.643 2.628c1.023 1.618 1.825 1.59 3.035 1.59-1.006-.772-1.662-1.746-1.98-2.252l-1.906-3.051c.102-.19.189-.384.261-.583zM56 42h-3.5V22H56z" />
    <path d="M56 62h-3.5V42H56z" fill="red" />
    <path d="M56 82h-3.5V62H56z" fill="#FC0" /></svg>