<svg xmlns="http://www.w3.org/2000/svg" xmlns:xlink="http://www.w3.org/1999/xlink" id="logo" x="0px" y="0px" viewBox="0 0 512 512" style="enable-background:new 0 0 512 512;" xml:space="preserve" class=""><g><polygon style="fill:#A66BE7" points="464.8,266.75 409.59,367.56 102.41,367.56 47.2,266.75 141.85,239.09 169.51,144.44   256,191.81 256.37,191.61 342.49,144.44 370.15,239.09 " data-original="#FFE370" class="" data-old_color="#FFE370"/><polygon style="fill:#883ADF" points="464.8,266.75 409.59,367.56 256.37,367.56 256.37,191.61 342.49,144.44 370.15,239.09 " data-original="#FFD100" class="" data-old_color="#FFD100"/><path style="fill:#6B09D8" d="M370.95,367.56h-229.9l0.1-15.1c0.2-30.52,12.24-59.18,33.89-80.7  c21.67-21.53,50.42-33.38,80.96-33.38h0.37c30.4,0.1,59.01,11.94,80.59,33.38c21.65,21.52,33.69,50.18,33.89,80.7L370.95,367.56z" data-original="#FFA720" class="active-path" data-old_color="#FFA720"/><path style="fill:#7921DB" d="M370.95,367.56H256.37V238.38c30.4,0.1,59.01,11.94,80.59,33.38c21.65,21.52,33.69,50.18,33.89,80.7  L370.95,367.56z" data-original="#FF8600" class="" data-old_color="#FF8600"/><rect y="337.56" style="fill:#D2B5F3" width="512" height="30" data-original="#DCCABA" class="" data-old_color="#DCCABA"/><rect x="256.37" y="337.56" style="fill:#E1CDF7" width="255.63" height="30" data-original="#C5AA8F" class="" data-old_color="#C5AA8F"/></g> </svg>
