<?xml version="1.0" encoding="UTF-8" standalone="no"?>
<svg width="227.76854mm" height="239.5023mm" viewBox="0 0 227.76854 239.5023" version="1.1"
  xmlns:xlink="http://www.w3.org/1999/xlink" xmlns="http://www.w3.org/2000/svg" xmlns:svg="http://www.w3.org/2000/svg">
  <g transform="translate(20.537603,-3.7227672)">
    <path
      style="display:inline;fill:#ffff00;stroke:none;stroke-width:0.231149px;stroke-linecap:butt;stroke-linejoin:miter;stroke-opacity:1"
      d="M 102.65846,73.320086 C 80.768887,90.261523 63.992167,109.81749 53.727877,126.78917 c -4.14593,6.85517 -12.22943,24.87702 -14.25996,51.51806 0,0 51.34532,-28.38078 63.680823,-54.04312 9.61479,-20.00223 -0.49028,-50.944024 -0.49028,-50.944024 z"
      id="path16181-3" />
  </g>
  <g transform="translate(20.537603,-3.7227672)">
    <path
      style="display:inline;fill:#ff0000;stroke:#000000;stroke-width:0.231149px;stroke-linecap:butt;stroke-linejoin:miter;stroke-opacity:0"
      d="m 139.06183,73.122736 c -7.53494,-3.853553 -22.20578,-10.54027 -36.40337,0.19735 5.93769,26.071194 2.00974,42.554064 -7.896873,60.203674 -10.77516,19.19704 -53.517302,40.88441 -55.293669,44.78347 -3.23093,18.63037 -15.588682,45.21247 -17.69679,54.7748 -2.108108,9.56232 20.217279,-35.86658 35.376145,-49.22804 9.833775,-8.66781 25.094304,-9.69363 34.563474,-18.75836 12.929843,-12.3776 27.648313,-46.03299 27.648313,-46.03299 l -0.85775,-29.038462 z"
      id="path14039" />
  </g>
  <g transform="translate(20.537603,-3.7227672)">
    <path
      style="display:inline;fill:#ff0000;stroke:#000000;stroke-width:0.231149px;stroke-linecap:butt;stroke-linejoin:miter;stroke-opacity:0"
      d="m 42.668384,104.85981 c 6.699753,8.30755 13.651806,13.2923 25.689283,16.86883 12.0375,3.57653 25.36522,-0.90311 25.36522,-0.90311 -3.17621,-8.78507 -8.45905,-23.580603 -19.050009,-43.979422 -5.344,-10.292881 -32.831222,-27.166545 -51.775856,-23.628937 0.736549,9.115643 4.897508,29.995776 19.771362,51.642639 z"
      id="path18270-0" />
  </g>
  <g transform="translate(20.537603,-3.7227672)">
    <path
      style="display:inline;fill:#000000;stroke:#000000;stroke-width:0.231149px;stroke-linecap:butt;stroke-linejoin:miter;stroke-opacity:0"
      d="m 23.764681,59.765525 c -0.844548,2.35955 20.937476,5.20129 35.873729,16.37277 10.05594,7.52128 30.034957,33.993095 30.034957,33.993095 0,0 -9.18759,-26.837915 -23.01254,-46.025815 C 60.482029,55.529885 51.449116,41.51047 40.194491,29.751534 20.898892,10.917756 16.356616,12.065176 17.186529,12.263971 c -1.693426,9.57826 5.42624,45.999344 6.578152,47.501554 z"
      id="path6130-3" />
  </g>
  <path id="path2516"
    style="fill:#000000;stroke:none;stroke-width:0.264583px;stroke-linecap:butt;stroke-linejoin:miter;stroke-opacity:1"
    d="m 152.07556,67.794065 c -18.62122,-0.04618 -21.64885,31.032039 -12.05912,47.265045 3.34698,-7.33579 6.76268,-11.37815 18.81995,-13.77466 11.50749,-2.287244 22.49771,0.38708 29.99661,2.22476 4.4046,1.07938 9.02609,3.44835 24.10654,8.75192 -9.42133,-8.08788 -14.68964,-10.69791 -19.85667,-13.921645 -7.0804,-4.417462 -21.37337,-8.032067 -21.37337,-8.032067 0,0 0.0746,-19.349315 -16.51837,-22.231718 -1.08073,-0.187735 -2.11937,-0.279167 -3.11557,-0.281635 z m 2.88819,12.876731 c 0.30543,-0.0022 0.61387,0.01508 0.92088,0.05168 2.58893,0.309132 4.53579,1.895998 4.34857,3.544485 -0.18711,1.648676 -2.43786,2.734717 -5.02708,2.425692 -2.58927,-0.309148 -4.53626,-1.896353 -4.34858,-3.545003 0.1621,-1.423939 1.88124,-2.460924 4.10621,-2.476852 z" />
</svg>
